# xmcd CD database file
#
# Track frame offsets:
#	150
#	28360
#	47440
#	69440
#	98510
#	125945
#	156320
#	189425
#	221752
#	270795
#
# Disc length: 4107 seconds
#
# Revision: 0
# Processed by: cddbd v1.5.2PL0 Copyright (c) Steve Scherf et al.
# Submitted via: CDex 1.70beta2
#
DISCID=8a10090a
DTITLE=Kitaro - Best of Kitaro Volume 2
DYEAR=1999
DGENRE=New Age
TTITLE0=Theme From Silk Road
TTITLE1=Tenku
TTITLE2=The Field
TTITLE3=Koi
TTITLE4=Cosmic Love
TTITLE5=Dance of Sarasvati
TTITLE6=The Bottom of the Sky
TTITLE7=Gaia
TTITLE8=Heaven and Earth
TTITLE9=Lady of Dreams
EXTD=YEAR: 1999
EXTT0=
EXTT1=
EXTT2=
EXTT3=
EXTT4=
EXTT5=
EXTT6=
EXTT7=
EXTT8=
EXTT9=
PLAYORDER=
